<svg width="402" height="104" viewBox="0 0 402 104" fill="none" xmlns="http://www.w3.org/2000/svg">
<path d="M51.8496 0C80.4854 0 103.7 23.2138 103.7 51.8496C103.7 80.4856 80.4856 103.7 51.8496 103.7C33.429 103.7 17.2531 94.0932 8.05566 79.6172H16.2158V79.6143C34.7652 79.4965 49.802 64.5889 50.1289 46.0898C50.1317 46.0898 50.1349 46.0908 50.1377 46.0908V27.1406H31.1865C31.1865 35.9452 37.1917 43.3464 45.3291 45.4746H15.9941V76.6689H6.31543C2.28901 69.2974 0 60.8409 0 51.8496C0.000210284 23.214 23.214 0.000226806 51.8496 0ZM144.672 38.0234C147.51 38.0234 150.219 38.5833 152.797 39.7031C155.401 40.7969 157.641 42.2812 159.516 44.1562C161.417 46.0312 162.927 48.2708 164.047 50.875C165.167 53.4531 165.727 56.1615 165.727 59C165.727 61.8385 165.167 64.5469 164.047 67.125C162.927 69.7031 161.417 71.9297 159.516 73.8047C157.641 75.6797 155.401 77.1771 152.797 78.2969C150.219 79.4167 147.51 79.9766 144.672 79.9766C141.833 79.9766 139.112 79.4297 136.508 78.3359C133.904 77.2161 131.664 75.7188 129.789 73.8438C127.914 71.9427 126.417 69.7031 125.297 67.125C124.203 64.5469 123.656 61.8385 123.656 59C123.656 55.1979 124.594 51.6953 126.469 48.4922C128.344 45.263 130.896 42.7109 134.125 40.8359C137.354 38.9609 140.87 38.0234 144.672 38.0234ZM225.766 38.0234C228.214 38.0234 230.531 38.3229 232.719 38.9219C234.932 39.5208 237.029 40.4844 239.008 41.8125C240.987 43.1146 242.693 44.7422 244.125 46.6953C245.583 48.6484 246.729 51.0573 247.562 53.9219C248.396 56.7865 248.812 59.9766 248.812 63.4922V79H232.641V59C232.641 57.2812 232.055 55.901 230.883 54.8594C229.737 53.7917 228.357 53.2578 226.742 53.2578C225.154 53.2578 223.812 53.7786 222.719 54.8203C221.651 55.862 221.117 57.2552 221.117 59C221.117 60.6927 221.638 62.0729 222.68 63.1406C223.721 64.2083 224.932 64.7422 226.312 64.7422C227.484 64.7422 228.878 64.4557 230.492 63.8828V79.5469C227.862 79.8333 226.013 79.9766 224.945 79.9766C221.326 79.9766 217.979 79.0781 214.906 77.2812C211.833 75.4844 209.398 73.0755 207.602 70.0547C205.831 67.0078 204.945 63.7266 204.945 60.2109C204.945 56.9557 205.492 53.9349 206.586 51.1484C207.706 48.362 209.203 46.0182 211.078 44.1172C212.979 42.2161 215.193 40.7318 217.719 39.6641C220.271 38.5703 222.953 38.0234 225.766 38.0234ZM336.703 38.0234C342.328 38.0234 346.977 39.4297 350.648 42.2422C354.32 45.0286 356.872 48.8047 358.305 53.5703L338.383 64.5078L333.812 56.4219L341.82 52.0469C340.466 50.9271 338.786 50.3672 336.781 50.3672C335.479 50.3672 334.19 51.1745 332.914 52.7891C331.638 54.3776 331 56.0182 331 57.7109C331 60.3151 331.703 62.4635 333.109 64.1562C334.516 65.849 336.482 66.6953 339.008 66.6953C341.065 66.6953 342.862 66.2396 344.398 65.3281C345.935 64.4167 347.549 63.0755 349.242 61.3047L358.305 70.4453C355.727 73.3099 352.602 75.6146 348.93 77.3594C345.284 79.1042 341.469 79.9766 337.484 79.9766C331.339 79.9766 326.299 77.9583 322.367 73.9219C318.435 69.8594 316.469 64.7031 316.469 58.4531C316.469 55.6146 317.055 52.9062 318.227 50.3281C319.398 47.75 320.922 45.5755 322.797 43.8047C324.698 42.0339 326.859 40.6276 329.281 39.5859C331.729 38.5443 334.203 38.0234 336.703 38.0234ZM201.859 51.8125H200.102C195.336 51.8125 191.99 52.75 190.062 54.625C188.161 56.474 187.211 59.612 187.211 64.0391V79H171.312V39H186.508V43.7266H186.664C188.305 41.3047 189.997 39.7552 191.742 39.0781C193.513 38.375 196.247 38.0234 199.945 38.0234H201.859V51.8125ZM270.492 79H254.516V39H270.492V79ZM280.688 39C286.469 39 290.792 40.8359 293.656 44.5078C296.521 40.8359 300.844 39 306.625 39H310.766V52.75H307.719C303.578 52.75 301.508 54.8333 301.508 59C301.508 63.1667 303.578 65.25 307.719 65.25H310.766V79H306.625C300.844 79 296.521 77.1641 293.656 73.4922C290.792 77.1641 286.469 79 280.688 79H276.547V65.25H279.594C283.734 65.25 285.805 63.1667 285.805 59C285.805 54.8333 283.734 52.75 279.594 52.75H276.547V39H280.688ZM382.523 38.0234C385.544 38.0234 388.266 38.4792 390.688 39.3906C393.135 40.276 395.128 41.5 396.664 43.0625C398.201 44.599 399.372 46.3958 400.18 48.4531C400.987 50.4844 401.391 52.6719 401.391 55.0156V79H385.414V57.4766C385.414 55.7578 385.18 54.5469 384.711 53.8438C384.268 53.1146 383.539 52.75 382.523 52.75C381.508 52.75 380.766 53.1146 380.297 53.8438C379.854 54.5469 379.633 55.7578 379.633 57.4766V79H363.656V55.0156C363.656 52.6719 364.06 50.4844 364.867 48.4531C365.674 46.3958 366.846 44.599 368.383 43.0625C369.919 41.5 371.898 40.276 374.32 39.3906C376.768 38.4792 379.503 38.0234 382.523 38.0234ZM85.9912 24.2139C67.2863 24.2141 52.0973 39.256 51.8545 57.9033C51.853 57.9033 51.8511 57.9033 51.8496 57.9033V58.2832C51.8496 58.3078 51.8486 58.3328 51.8486 58.3574H51.8496V76.8535H70.7998C70.7997 67.8085 64.4628 60.2447 55.9863 58.3574H85.9912V24.2139ZM144.672 53.8828C143.266 53.8828 142.042 54.3906 141 55.4062C139.984 56.4219 139.477 57.6198 139.477 59C139.477 60.3802 139.984 61.5781 141 62.5938C142.042 63.6094 143.266 64.1172 144.672 64.1172C146.078 64.1172 147.289 63.6094 148.305 62.5938C149.346 61.5781 149.867 60.3802 149.867 59C149.867 57.6198 149.346 56.4219 148.305 55.4062C147.289 54.3906 146.078 53.8828 144.672 53.8828ZM262.523 16.9297C265.102 16.9297 267.315 17.8542 269.164 19.7031C271.013 21.5521 271.938 23.7656 271.938 26.3438C271.938 28.9219 271.013 31.1484 269.164 33.0234C267.315 34.8724 265.102 35.7969 262.523 35.7969C259.945 35.7969 257.719 34.8724 255.844 33.0234C253.995 31.1484 253.07 28.9219 253.07 26.3438C253.07 23.7917 253.995 21.5911 255.844 19.7422C257.719 17.8672 259.945 16.9297 262.523 16.9297Z" fill="#0F5E70"/>
</svg>
