<svg width="288" height="104" viewBox="0 0 288 104" fill="none" xmlns="http://www.w3.org/2000/svg">
<path d="M51.8496 0C80.4854 0 103.7 23.2138 103.7 51.8496C103.7 80.4856 80.4856 103.7 51.8496 103.7C33.429 103.7 17.2531 94.0932 8.05566 79.6172H16.2158V79.6143C34.7652 79.4965 49.802 64.5889 50.1289 46.0898C50.1317 46.0898 50.1349 46.0908 50.1377 46.0908V27.1406H31.1865C31.1865 35.9452 37.1917 43.3464 45.3291 45.4746H15.9941V76.6689H6.31543C2.28901 69.2974 0 60.8409 0 51.8496C0.000210284 23.214 23.214 0.000226806 51.8496 0ZM85.9912 24.2139C67.2863 24.2141 52.0973 39.256 51.8545 57.9033H51.8496V58.2832C51.8496 58.3078 51.8486 58.3328 51.8486 58.3574H51.8496V76.8535H70.7998C70.7997 67.8085 64.4628 60.2447 55.9863 58.3574H85.9912V24.2139ZM126.795 40.3896C128.569 40.3896 130.262 40.7396 131.873 41.4395C133.501 42.123 134.9 43.0508 136.072 44.2227C137.26 45.3945 138.204 46.7943 138.904 48.4219C139.604 50.0332 139.954 51.7259 139.954 53.5C139.954 55.2741 139.604 56.9668 138.904 58.5781C138.204 60.1895 137.26 61.5811 136.072 62.7529C134.9 63.9248 133.501 64.8607 131.873 65.5605C130.262 66.2604 128.569 66.6104 126.795 66.6104C125.021 66.6104 123.32 66.2686 121.692 65.585C120.065 64.8851 118.665 63.9492 117.493 62.7773C116.321 61.5892 115.385 60.1895 114.686 58.5781C114.002 56.9668 113.66 55.2741 113.66 53.5C113.66 51.1237 114.246 48.9346 115.418 46.9326C116.59 44.9144 118.185 43.3193 120.203 42.1475C122.221 40.9756 124.419 40.3896 126.795 40.3896ZM177.479 40.3896C179.008 40.3896 180.457 40.5768 181.824 40.9512C183.208 41.3255 184.518 41.9277 185.755 42.7578C186.992 43.5716 188.058 44.5889 188.953 45.8096C189.865 47.0303 190.581 48.5358 191.102 50.3262C191.622 52.1165 191.883 54.1104 191.883 56.3076V66H181.775V53.5C181.775 52.4258 181.409 51.5632 180.677 50.9121C179.961 50.2448 179.098 49.9111 178.089 49.9111C177.096 49.9111 176.258 50.2367 175.574 50.8877C174.907 51.5387 174.573 52.4095 174.573 53.5C174.573 54.5579 174.899 55.4206 175.55 56.0879C176.201 56.7552 176.958 57.0889 177.82 57.0889C178.553 57.0889 179.424 56.9098 180.433 56.5518V66.3418C178.789 66.5208 177.633 66.6104 176.966 66.6104C174.703 66.6104 172.612 66.0488 170.691 64.9258C168.771 63.8027 167.249 62.2972 166.126 60.4092C165.019 58.5049 164.466 56.4541 164.466 54.2568C164.466 52.2223 164.808 50.3343 165.491 48.5928C166.191 46.8512 167.127 45.3864 168.299 44.1982C169.487 43.0101 170.87 42.0824 172.449 41.415C174.044 40.7314 175.721 40.3896 177.479 40.3896ZM246.814 40.3896C250.33 40.3896 253.235 41.2686 255.53 43.0264C257.825 44.7679 259.42 47.1279 260.315 50.1064L247.864 56.9424L245.008 51.8887L250.013 49.1543C249.166 48.4544 248.117 48.1045 246.863 48.1045C246.049 48.1045 245.244 48.609 244.446 49.6182C243.649 50.611 243.25 51.6364 243.25 52.6943C243.25 54.3219 243.689 55.6647 244.568 56.7227C245.447 57.7806 246.676 58.3096 248.255 58.3096C249.541 58.3096 250.664 58.0247 251.624 57.4551C252.584 56.8854 253.593 56.0472 254.651 54.9404L260.315 60.6533C258.704 62.4437 256.751 63.8841 254.456 64.9746C252.177 66.0651 249.793 66.6104 247.303 66.6104C243.462 66.6104 240.312 65.349 237.854 62.8262C235.397 60.2871 234.168 57.0645 234.168 53.1582C234.168 51.3841 234.534 49.6914 235.267 48.0801C235.999 46.4688 236.951 45.1097 238.123 44.0029C239.311 42.8962 240.662 42.0173 242.176 41.3662C243.706 40.7152 245.252 40.3896 246.814 40.3896ZM162.537 49.0078H161.438C158.46 49.0078 156.368 49.5938 155.164 50.7656C153.976 51.9212 153.382 53.8825 153.382 56.6494V66H143.445V41H152.942V43.9541H153.04C154.065 42.4404 155.123 41.472 156.214 41.0488C157.321 40.6094 159.03 40.3896 161.341 40.3896H162.537V49.0078ZM205.433 66H195.447V41H205.433V66ZM211.805 41C215.418 41 218.12 42.1475 219.91 44.4424C221.701 42.1475 224.402 41 228.016 41H230.604V49.5938H228.699C226.111 49.5938 224.817 50.8958 224.817 53.5C224.817 56.1042 226.111 57.4062 228.699 57.4062H230.604V66H228.016C224.402 66 221.701 64.8525 219.91 62.5576C218.12 64.8525 215.418 66 211.805 66H209.217V57.4062H211.121C213.709 57.4062 215.003 56.1042 215.003 53.5C215.003 50.8958 213.709 49.5938 211.121 49.5938H209.217V41H211.805ZM275.452 40.3896C277.34 40.3896 279.041 40.6745 280.555 41.2441C282.085 41.7975 283.33 42.5625 284.29 43.5391C285.25 44.4993 285.983 45.6224 286.487 46.9082C286.992 48.1777 287.244 49.5449 287.244 51.0098V66H277.259V52.5479C277.259 51.4736 277.112 50.7168 276.819 50.2773C276.543 49.8216 276.087 49.5938 275.452 49.5938C274.817 49.5938 274.354 49.8216 274.061 50.2773C273.784 50.7168 273.646 51.4736 273.646 52.5479V66H263.66V51.0098C263.66 49.5449 263.912 48.1777 264.417 46.9082C264.922 45.6224 265.654 44.4993 266.614 43.5391C267.575 42.5625 268.812 41.7975 270.325 41.2441C271.855 40.6745 273.564 40.3896 275.452 40.3896ZM126.795 50.3018C125.916 50.3018 125.151 50.6191 124.5 51.2539C123.865 51.8887 123.548 52.6374 123.548 53.5C123.548 54.3626 123.865 55.1113 124.5 55.7461C125.151 56.3809 125.916 56.6982 126.795 56.6982C127.674 56.6982 128.431 56.3809 129.065 55.7461C129.716 55.1113 130.042 54.3626 130.042 53.5C130.042 52.6374 129.716 51.8887 129.065 51.2539C128.431 50.6191 127.674 50.3018 126.795 50.3018ZM200.452 27.2061C202.063 27.2061 203.447 27.7839 204.603 28.9395C205.758 30.0951 206.336 31.4785 206.336 33.0898C206.336 34.7012 205.758 36.0928 204.603 37.2646C203.447 38.4202 202.063 38.998 200.452 38.998C198.841 38.998 197.449 38.4202 196.277 37.2646C195.122 36.0928 194.544 34.7012 194.544 33.0898C194.544 31.4948 195.122 30.1195 196.277 28.9639C197.449 27.792 198.841 27.2061 200.452 27.2061Z" fill="#0F5E70"/>
</svg>
